<svg width="466" height="248" viewBox="0 0 466 248" fill="none" xmlns="http://www.w3.org/2000/svg">
<path d="M64.8058 0.0499938C69.1725 0.0499938 72.8405 0.31199 75.8098 0.835984C78.7791 1.35999 81.4865 1.88399 83.9318 2.40799C86.3771 2.93199 89.0845 3.19398 92.0538 3.19398C93.2765 3.19398 94.4118 3.19398 95.4598 3.19398C96.5078 3.01932 97.6431 2.66999 98.8658 2.146H101.486V47.472H98.8658C98.5165 36.2933 97.2938 27.4727 95.1978 21.01C93.1018 14.3727 89.6085 9.56932 84.7178 6.59999C80.0018 3.63066 73.2771 2.146 64.5438 2.146C54.2385 2.146 45.6798 5.37733 38.8678 11.84C32.2305 18.128 27.2525 28.346 23.9338 42.494C20.7898 56.4673 19.2178 74.982 19.2178 98.038C19.2178 119.697 20.7025 137.251 23.6718 150.7C26.8158 163.975 31.8811 173.669 38.8678 179.782C45.8545 185.721 55.0245 188.69 66.3778 188.69C73.1898 188.69 78.8665 187.293 83.4078 184.498C88.1238 181.703 91.8791 178.123 94.6738 173.756C97.4685 169.389 99.4771 164.935 100.7 160.394C102.097 155.853 102.796 151.835 102.796 148.342H105.416C105.416 151.835 104.717 156.115 103.32 161.18C102.097 166.245 99.8265 171.223 96.5078 176.114C93.3638 180.83 88.9971 184.76 83.4078 187.904C77.9931 191.048 70.9191 192.62 62.1858 192.62C49.2605 192.62 38.1691 189.563 28.9118 183.45C19.6545 177.162 12.5805 167.119 7.6898 153.32C2.9738 139.347 0.615801 120.919 0.615801 98.038C0.615801 74.2833 3.2358 55.2447 8.4758 40.922C13.8905 26.5993 21.4011 16.2067 31.0078 9.74399C40.6145 3.28133 51.8805 0.0499938 64.8058 0.0499938ZM229.532 126.072C229.532 170.437 212.24 192.62 177.656 192.62C143.072 192.62 125.78 170.437 125.78 126.072C125.78 82.2307 143.072 60.31 177.656 60.31C212.24 60.31 229.532 82.2307 229.532 126.072ZM211.454 126.072C211.454 111.225 210.319 99.1733 208.048 89.916C205.952 80.484 202.459 73.5847 197.568 69.218C192.677 64.6767 186.04 62.406 177.656 62.406C169.621 62.406 163.159 64.6767 158.268 69.218C153.377 73.5847 149.709 80.484 147.264 89.916C144.993 99.1733 143.858 111.225 143.858 126.072C143.858 141.093 144.993 153.32 147.264 162.752C149.709 172.184 153.377 179.171 158.268 183.712C163.159 188.253 169.621 190.524 177.656 190.524C186.04 190.524 192.677 188.253 197.568 183.712C202.459 179.171 205.952 172.184 208.048 162.752C210.319 153.32 211.454 141.093 211.454 126.072ZM292.261 190.524C301.693 190.524 308.941 188.341 314.007 183.974C319.072 179.433 321.605 173.057 321.605 164.848C321.605 157.861 318.81 151.835 313.221 146.77C307.806 141.705 300.383 136.989 290.951 132.622C284.663 129.653 278.811 126.509 273.397 123.19C267.982 119.871 263.615 115.854 260.297 111.138C257.153 106.422 255.581 100.483 255.581 93.322C255.581 84.2393 259.074 76.4667 266.061 70.004C273.222 63.5413 283.877 60.31 298.025 60.31C310.601 60.31 319.771 62.7553 325.535 67.646C331.299 72.362 334.181 77.6893 334.181 83.628C334.181 87.4707 333.22 90.702 331.299 93.322C329.552 95.942 327.456 97.8633 325.011 99.086C322.74 100.309 320.644 100.92 318.723 100.92L317.937 100.134C319.683 98.2127 320.906 96.0293 321.605 93.584C322.303 90.964 322.653 88.2567 322.653 85.462C322.653 81.9687 322.041 78.4753 320.819 74.982C319.596 71.4887 317.151 68.5193 313.483 66.074C309.989 63.6287 304.837 62.406 298.025 62.406C291.038 62.406 285.449 63.6287 281.257 66.074C277.065 68.3447 274.008 71.4013 272.087 75.244C270.34 78.912 269.467 82.9293 269.467 87.296C269.467 93.2347 270.777 98.1253 273.397 101.968C276.191 105.811 279.859 109.129 284.401 111.924C288.942 114.544 294.007 117.251 299.597 120.046C310.426 124.937 319.072 130.264 325.535 136.028C331.997 141.792 335.229 149.128 335.229 158.036C335.229 168.691 331.299 177.162 323.439 183.45C315.579 189.563 305.186 192.62 292.261 192.62C282.829 192.62 275.143 191.31 269.205 188.69C263.266 186.07 258.812 182.751 255.843 178.734C253.048 174.717 251.651 170.437 251.651 165.896C251.651 160.831 253.223 156.813 256.367 153.844C259.685 150.7 263.266 149.128 267.109 149.128L267.895 149.914C266.497 152.01 265.537 154.368 265.013 156.988C264.489 159.433 264.227 161.879 264.227 164.324C264.227 170.961 266.41 176.987 270.777 182.402C275.143 187.817 282.305 190.524 292.261 190.524ZM447.778 71.576C447.778 69.6547 446.992 68.0827 445.42 66.86C443.848 65.6373 441.228 65.026 437.56 65.026H428.652V62.93H465.856V65.026H462.188C458.87 65.026 456.162 66.1613 454.066 68.432C451.97 70.528 450.136 73.7593 448.564 78.126L404.548 202.576C400.356 214.453 396.251 223.623 392.234 230.086C388.391 236.723 384.461 241.265 380.444 243.71C376.427 246.33 372.147 247.64 367.606 247.64C362.541 247.64 358.523 246.155 355.554 243.186C352.759 240.391 351.362 237.073 351.362 233.23C351.362 231.483 351.537 229.737 351.886 227.99C352.41 226.418 353.109 225.021 353.982 223.798H355.03C355.729 227.466 357.301 230.086 359.746 231.658C362.366 233.23 365.335 234.016 368.654 234.016C370.051 234.016 372.06 233.754 374.68 233.23C377.3 232.881 380.269 231.745 383.588 229.824C386.907 227.903 390.225 224.759 393.544 220.392C396.863 216.2 399.832 210.174 402.452 202.314L406.644 190L362.104 77.602C360.357 72.7113 358.785 69.3927 357.388 67.646C355.991 65.8993 353.72 65.026 350.576 65.026H344.288V62.93H396.688V65.026H377.3C377.3 66.9473 377.387 68.956 377.562 71.052C377.911 72.9733 378.61 75.3313 379.658 78.126L415.028 168.778L446.468 77.34C446.817 76.292 447.079 75.3313 447.254 74.458C447.603 73.41 447.778 72.4493 447.778 71.576Z" fill="white"/>
</svg>
