<svg width="287" height="119" viewBox="0 0 287 119" fill="none" xmlns="http://www.w3.org/2000/svg">
<path d="M19.04 49.7C20.1733 49.7 21.1253 49.768 21.896 49.904C22.6667 50.04 23.3693 50.176 24.004 50.312C24.6387 50.448 25.3413 50.516 26.112 50.516C26.4293 50.516 26.724 50.516 26.996 50.516C27.268 50.4707 27.5627 50.38 27.88 50.244H28.56V62.008H27.88C27.7893 59.1067 27.472 56.8173 26.928 55.14C26.384 53.4173 25.4773 52.1707 24.208 51.4C22.984 50.6293 21.2387 50.244 18.972 50.244C16.2973 50.244 14.076 51.0827 12.308 52.76C10.5853 54.392 9.29333 57.044 8.432 60.716C7.616 64.3427 7.208 69.148 7.208 75.132C7.208 80.7533 7.59333 85.3093 8.364 88.8C9.18 92.2453 10.4947 94.7613 12.308 96.348C14.1213 97.8893 16.5013 98.66 19.448 98.66C21.216 98.66 22.6893 98.2973 23.868 97.572C25.092 96.8467 26.0667 95.9173 26.792 94.784C27.5173 93.6507 28.0387 92.4947 28.356 91.316C28.7187 90.1373 28.9 89.0947 28.9 88.188H29.58C29.58 89.0947 29.3987 90.2053 29.036 91.52C28.7187 92.8347 28.1293 94.1267 27.268 95.396C26.452 96.62 25.3187 97.64 23.868 98.456C22.4627 99.272 20.6267 99.68 18.36 99.68C15.0053 99.68 12.1267 98.8867 9.724 97.3C7.32133 95.668 5.48533 93.0613 4.216 89.48C2.992 85.8533 2.38 81.0707 2.38 75.132C2.38 68.9667 3.06 64.0253 4.42 60.308C5.82533 56.5907 7.77467 53.8933 10.268 52.216C12.7613 50.5387 15.6853 49.7 19.04 49.7ZM61.7934 82.408C61.7934 93.9227 57.3054 99.68 48.3294 99.68C39.3534 99.68 34.8654 93.9227 34.8654 82.408C34.8654 71.0293 39.3534 65.34 48.3294 65.34C57.3054 65.34 61.7934 71.0293 61.7934 82.408ZM57.1014 82.408C57.1014 78.5547 56.8067 75.4267 56.2174 73.024C55.6734 70.576 54.7667 68.7853 53.4974 67.652C52.2281 66.4733 50.5054 65.884 48.3294 65.884C46.2441 65.884 44.5667 66.4733 43.2974 67.652C42.0281 68.7853 41.0761 70.576 40.4414 73.024C39.8521 75.4267 39.5574 78.5547 39.5574 82.408C39.5574 86.3067 39.8521 89.48 40.4414 91.928C41.0761 94.376 42.0281 96.1893 43.2974 97.368C44.5667 98.5467 46.2441 99.136 48.3294 99.136C50.5054 99.136 52.2281 98.5467 53.4974 97.368C54.7667 96.1893 55.6734 94.376 56.2174 91.928C56.8067 89.48 57.1014 86.3067 57.1014 82.408ZM80.5221 98.456V99H66.7181V98.456H71.4781V66.564H66.7181V66.02H75.4901L75.6941 74.112C77.0088 70.8933 78.7314 68.6267 80.8621 67.312C82.9928 65.9973 85.1688 65.34 87.3901 65.34C89.6114 65.34 91.3568 65.7253 92.6261 66.496C93.8954 67.2213 94.7794 68.4227 95.2781 70.1C95.8221 71.732 96.0941 73.9533 96.0941 76.764V98.456H100.854V99H87.0501V98.456H91.8101V75.132C91.8101 72.0947 91.4701 69.8507 90.7901 68.4C90.1101 66.904 88.6594 66.156 86.4381 66.156C84.5794 66.156 82.6528 66.8587 80.6581 68.264C78.6634 69.6693 77.0314 72.0493 75.7621 75.404V98.456H80.5221ZM103.838 66.564V66.02H105.402C107.306 66.02 108.802 65.4307 109.89 64.252C110.978 63.0733 111.794 60.92 112.338 57.792H113.018V66.02H119.682V66.564H113.018V92.948C113.018 94.716 113.29 96.144 113.834 97.232C114.378 98.2747 115.375 98.796 116.826 98.796C117.551 98.796 118.163 98.66 118.662 98.388C119.16 98.0707 119.546 97.6173 119.818 97.028L120.226 97.232C119.818 98.048 119.183 98.66 118.322 99.068C117.506 99.476 116.44 99.68 115.126 99.68C113.902 99.68 112.791 99.4533 111.794 99C110.842 98.592 110.094 97.912 109.55 96.96C109.051 96.008 108.802 94.7387 108.802 93.152V66.564H103.838ZM147.493 99C145.861 99 144.728 98.5467 144.093 97.64C143.504 96.7333 143.186 95.4187 143.141 93.696C142.461 95.3733 141.305 96.8013 139.673 97.98C138.041 99.1133 135.956 99.68 133.417 99.68C130.606 99.68 128.453 99.1133 126.957 97.98C125.461 96.8467 124.713 95.26 124.713 93.22C124.713 90.8627 125.733 88.8907 127.773 87.304C129.813 85.7173 132.737 84.6747 136.545 84.176L143.073 83.224V77.376C143.073 75.0187 142.96 72.9787 142.733 71.256C142.506 69.5333 141.917 68.196 140.965 67.244C140.013 66.292 138.426 65.816 136.205 65.816C134.301 65.816 132.85 66.2013 131.853 66.972C130.856 67.6973 130.176 68.6493 129.813 69.828C129.496 70.9613 129.337 72.14 129.337 73.364C129.337 74.2253 129.428 75.064 129.609 75.88C129.79 76.6507 130.198 77.3533 130.833 77.988L130.629 78.192C129.088 77.9653 127.864 77.3987 126.957 76.492C126.096 75.54 125.665 74.3387 125.665 72.888C125.665 71.7547 126.028 70.6213 126.753 69.488C127.478 68.3093 128.612 67.3347 130.153 66.564C131.694 65.748 133.712 65.34 136.205 65.34C139.016 65.34 141.237 65.816 142.869 66.768C144.501 67.72 145.657 69.148 146.337 71.052C147.017 72.956 147.357 75.3587 147.357 78.26V96.008C147.357 96.688 147.47 97.2773 147.697 97.776C147.924 98.2293 148.445 98.456 149.261 98.456H152.185V99H147.493ZM129.337 92.88C129.337 94.6027 129.722 96.008 130.493 97.096C131.309 98.1387 132.805 98.66 134.981 98.66C136.93 98.66 138.585 98.1387 139.945 97.096C141.305 96.0533 142.348 94.58 143.073 92.676V83.768L136.681 84.72C134.777 85.0373 133.281 85.5813 132.193 86.352C131.15 87.1227 130.402 88.0747 129.949 89.208C129.541 90.296 129.337 91.52 129.337 92.88ZM169.786 65.34C172.189 65.34 174.093 65.6573 175.498 66.292C176.949 66.9267 177.969 67.7653 178.558 68.808C179.148 69.8507 179.442 70.984 179.442 72.208C179.442 73.2053 179.216 74.112 178.762 74.928C178.354 75.744 177.788 76.424 177.062 76.968C176.382 77.4667 175.634 77.784 174.818 77.92L174.614 77.716C175.113 76.9907 175.43 76.1973 175.566 75.336C175.748 74.4747 175.838 73.5907 175.838 72.684C175.838 72.0493 175.77 71.3467 175.634 70.576C175.498 69.8053 175.226 69.0573 174.818 68.332C174.456 67.6067 173.866 67.0173 173.05 66.564C172.234 66.1107 171.146 65.884 169.786 65.884C167.429 65.884 165.616 66.564 164.346 67.924C163.077 69.2387 162.193 71.1653 161.694 73.704C161.241 76.2427 161.014 79.3707 161.014 83.088C161.014 86.3973 161.241 89.2307 161.694 91.588C162.148 93.9453 163.054 95.736 164.414 96.96C165.82 98.184 167.882 98.796 170.602 98.796C172.37 98.796 173.889 98.388 175.158 97.572C176.428 96.7107 177.38 95.668 178.014 94.444C178.694 93.22 179.034 92.0187 179.034 90.84H179.646C179.646 92.1093 179.261 93.4467 178.49 94.852C177.765 96.212 176.654 97.368 175.158 98.32C173.662 99.2267 171.804 99.68 169.582 99.68C165.094 99.68 161.762 98.388 159.586 95.804C157.41 93.1747 156.322 88.936 156.322 83.088C156.322 77.104 157.478 72.6613 159.79 69.76C162.102 66.8133 165.434 65.34 169.786 65.34ZM184.455 66.564V66.02H186.019C187.923 66.02 189.419 65.4307 190.507 64.252C191.595 63.0733 192.411 60.92 192.955 57.792H193.635V66.02H200.299V66.564H193.635V92.948C193.635 94.716 193.907 96.144 194.451 97.232C194.995 98.2747 195.992 98.796 197.443 98.796C198.168 98.796 198.78 98.66 199.279 98.388C199.777 98.0707 200.163 97.6173 200.435 97.028L200.843 97.232C200.435 98.048 199.8 98.66 198.939 99.068C198.123 99.476 197.057 99.68 195.743 99.68C194.519 99.68 193.408 99.4533 192.411 99C191.459 98.592 190.711 97.912 190.167 96.96C189.668 96.008 189.419 94.7387 189.419 93.152V66.564H184.455Z" fill="white"/>
<path d="M240.198 95.888L245.334 93.2729C253.626 89.0509 263.623 90.0739 270.888 95.888V95.888V95.888C264.947 88.8185 263.834 78.8712 268.068 70.664L270.888 65.1972" stroke="#678784" stroke-width="3"/>
<path d="M270.625 95.5859L237.365 62.3255" stroke="#678784" stroke-width="3"/>
<path d="M4.144 16V11.984H5.616V16H4.144ZM1.888 5.12L4.432 9.648L5.008 10.848H4.864L5.408 9.648L7.952 5.12H9.52L5.616 11.984H4.144L0.24 5.12H1.888ZM13.2948 16.192C12.4841 16.192 11.7854 16.016 11.1988 15.664C10.6228 15.312 10.1801 14.8053 9.87075 14.144C9.56142 13.472 9.40675 12.6773 9.40675 11.76C9.40675 10.8 9.56142 9.98933 9.87075 9.328C10.1908 8.66667 10.6441 8.16533 11.2308 7.824C11.8174 7.472 12.5054 7.296 13.2948 7.296C14.1054 7.296 14.7988 7.47733 15.3748 7.84C15.9614 8.192 16.4094 8.704 16.7188 9.376C17.0281 10.0373 17.1828 10.832 17.1828 11.76C17.1828 12.7093 17.0228 13.5147 16.7028 14.176C16.3934 14.8373 15.9454 15.3387 15.3588 15.68C14.7828 16.0213 14.0948 16.192 13.2948 16.192ZM13.2948 14.976C14.0841 14.976 14.6868 14.6987 15.1028 14.144C15.5294 13.5893 15.7428 12.7947 15.7428 11.76C15.7428 10.7253 15.5294 9.92533 15.1028 9.36C14.6868 8.79467 14.0841 8.512 13.2948 8.512C12.5054 8.512 11.8974 8.79467 11.4708 9.36C11.0548 9.91467 10.8468 10.7147 10.8468 11.76C10.8468 12.784 11.0601 13.5787 11.4868 14.144C11.9134 14.6987 12.5161 14.976 13.2948 14.976ZM25.811 7.504V16H24.403V7.504H25.811ZM24.403 12.528H25.075C25.0323 13.3387 24.867 14.016 24.579 14.56C24.291 15.104 23.9123 15.5147 23.443 15.792C22.9737 16.0587 22.435 16.192 21.827 16.192C21.2403 16.192 20.7337 16.08 20.307 15.856C19.8803 15.6213 19.555 15.28 19.331 14.832C19.107 14.384 18.995 13.8347 18.995 13.184V7.504H20.403V12.896C20.403 13.3227 20.467 13.696 20.595 14.016C20.723 14.3253 20.9203 14.5653 21.187 14.736C21.4537 14.9067 21.795 14.992 22.211 14.992C22.5523 14.992 22.8563 14.9227 23.123 14.784C23.4003 14.6453 23.6297 14.4587 23.811 14.224C24.003 13.9787 24.147 13.712 24.243 13.424C24.3497 13.1253 24.403 12.8267 24.403 12.528ZM38.2846 10.432H36.8766C36.7593 9.78133 36.5033 9.30133 36.1086 8.992C35.714 8.672 35.234 8.512 34.6686 8.512C33.89 8.512 33.2926 8.79467 32.8766 9.36C32.4713 9.91467 32.2686 10.7147 32.2686 11.76C32.2686 12.7947 32.482 13.5947 32.9086 14.16C33.3353 14.7147 33.938 14.992 34.7166 14.992C35.282 14.992 35.7566 14.8427 36.1406 14.544C36.5353 14.2347 36.802 13.776 36.9406 13.168H38.3486C38.1566 14.224 37.73 14.992 37.0686 15.472C36.4073 15.952 35.6126 16.192 34.6846 16.192C33.8846 16.192 33.1966 16.016 32.6206 15.664C32.0446 15.3013 31.602 14.7893 31.2926 14.128C30.9833 13.4667 30.8286 12.6773 30.8286 11.76C30.8286 10.8 30.9833 9.98933 31.2926 9.328C31.602 8.66667 32.0446 8.16533 32.6206 7.824C33.1966 7.472 33.8793 7.296 34.6686 7.296C35.298 7.296 35.8686 7.41333 36.3806 7.648C36.8926 7.88267 37.314 8.23467 37.6446 8.704C37.986 9.16267 38.1993 9.73867 38.2846 10.432ZM41.3848 10.272H39.9768C40.0728 9.64267 40.2701 9.10933 40.5688 8.672C40.8674 8.224 41.2674 7.88267 41.7688 7.648C42.2701 7.41333 42.8674 7.296 43.5608 7.296C44.3181 7.296 44.9474 7.43467 45.4488 7.712C45.9501 7.98933 46.3234 8.37867 46.5688 8.88C46.8141 9.37067 46.9368 9.94667 46.9368 10.608V13.952C46.9368 14.4427 46.9581 14.848 47.0008 15.168C47.0541 15.488 47.1341 15.7653 47.2408 16H45.7528C45.6461 15.7867 45.5821 15.52 45.5608 15.2C45.5394 14.88 45.5288 14.5653 45.5288 14.256V10.64C45.5288 9.95733 45.3581 9.43467 45.0168 9.072C44.6861 8.69867 44.1581 8.512 43.4328 8.512C42.8248 8.512 42.3501 8.672 42.0088 8.992C41.6781 9.30133 41.4701 9.728 41.3848 10.272ZM45.7368 10.832V11.888C44.7874 11.888 44.0088 11.936 43.4008 12.032C42.8034 12.1173 42.3394 12.2453 42.0088 12.416C41.6781 12.576 41.4488 12.768 41.3207 12.992C41.1928 13.216 41.1288 13.4613 41.1288 13.728C41.1288 14.1227 41.2781 14.432 41.5768 14.656C41.8861 14.8693 42.2861 14.976 42.7768 14.976C43.2994 14.976 43.7688 14.8533 44.1848 14.608C44.6008 14.3627 44.9261 14.0373 45.1608 13.632C45.4061 13.216 45.5288 12.768 45.5288 12.288H46.2808C46.2381 12.9813 46.0994 13.5787 45.8648 14.08C45.6408 14.5707 45.3474 14.9707 44.9848 15.28C44.6328 15.5893 44.2541 15.8187 43.8488 15.968C43.4434 16.1173 43.0381 16.192 42.6328 16.192C42.0461 16.192 41.5288 16.1013 41.0807 15.92C40.6434 15.7387 40.3021 15.4667 40.0568 15.104C39.8114 14.7413 39.6888 14.2933 39.6888 13.76C39.6888 13.1733 39.8434 12.6773 40.1528 12.272C40.4728 11.856 40.9474 11.5413 41.5768 11.328C42.1741 11.1253 42.7981 10.992 43.4488 10.928C44.0994 10.864 44.8621 10.832 45.7368 10.832ZM49.245 16V7.504H50.653V16H49.245ZM50.653 10.976H49.981C50.0343 10.1653 50.1997 9.488 50.477 8.944C50.765 8.4 51.149 7.98933 51.629 7.712C52.109 7.43467 52.6583 7.296 53.277 7.296C53.885 7.296 54.4023 7.41333 54.829 7.648C55.2557 7.872 55.581 8.208 55.805 8.656C56.0397 9.104 56.157 9.65867 56.157 10.32V16H54.749V10.608C54.749 10.1813 54.6797 9.81333 54.541 9.504C54.413 9.184 54.2103 8.93867 53.933 8.768C53.6663 8.58667 53.3197 8.496 52.893 8.496C52.541 8.496 52.2263 8.57067 51.949 8.72C51.6717 8.85867 51.437 9.04533 51.245 9.28C51.053 9.51467 50.9037 9.78133 50.797 10.08C50.701 10.368 50.653 10.6667 50.653 10.976Z" fill="white"/>
</svg>
