<svg width="274" height="119" viewBox="0 0 274 119" fill="none" xmlns="http://www.w3.org/2000/svg">
<path d="M2.516 50.924V50.38H17.952C21.5333 50.38 24.4573 50.924 26.724 52.012C28.9907 53.0547 30.668 54.5053 31.756 56.364C32.844 58.1773 33.388 60.2173 33.388 62.484C33.388 64.932 32.844 67.04 31.756 68.808C30.7133 70.576 29.308 71.9813 27.54 73.024C25.8173 74.0213 23.936 74.656 21.896 74.928C23.3467 75.2907 24.6613 75.9707 25.84 76.968C27.064 77.9653 28.152 79.688 29.104 82.136L32.164 90.16C33.0707 92.5627 33.932 94.3533 34.748 95.532C35.564 96.7107 36.448 97.4813 37.4 97.844C38.3973 98.2067 39.5533 98.4107 40.868 98.456V99H38.216C36.5387 99 35.0653 98.796 33.796 98.388C32.572 97.98 31.484 97.232 30.532 96.144C29.6253 95.056 28.764 93.492 27.948 91.452L24.276 81.592C23.5507 79.688 22.576 78.1467 21.352 76.968C20.1733 75.744 18.4053 75.132 16.048 75.132V74.792H18.564C20.9213 74.792 22.8253 74.2707 24.276 73.228C25.772 72.1853 26.86 70.7573 27.54 68.944C28.2653 67.0853 28.628 65 28.628 62.688C28.628 61.2373 28.492 59.832 28.22 58.472C27.948 57.0667 27.4267 55.82 26.656 54.732C25.8853 53.5987 24.7973 52.692 23.392 52.012C22.032 51.332 20.2187 50.992 17.952 50.992H12.784V98.456H18.496V99H2.516V98.456H8.228V50.924H2.516ZM69.2309 82.408C69.2309 93.9227 64.7429 99.68 55.7669 99.68C46.7909 99.68 42.3029 93.9227 42.3029 82.408C42.3029 71.0293 46.7909 65.34 55.7669 65.34C64.7429 65.34 69.2309 71.0293 69.2309 82.408ZM64.5389 82.408C64.5389 78.5547 64.2442 75.4267 63.6549 73.024C63.1109 70.576 62.2042 68.7853 60.9349 67.652C59.6656 66.4733 57.9429 65.884 55.7669 65.884C53.6816 65.884 52.0042 66.4733 50.7349 67.652C49.4656 68.7853 48.5136 70.576 47.8789 73.024C47.2896 75.4267 46.9949 78.5547 46.9949 82.408C46.9949 86.3067 47.2896 89.48 47.8789 91.928C48.5136 94.376 49.4656 96.1893 50.7349 97.368C52.0042 98.5467 53.6816 99.136 55.7669 99.136C57.9429 99.136 59.6656 98.5467 60.9349 97.368C62.2042 96.1893 63.1109 94.376 63.6549 91.928C64.2442 89.48 64.5389 86.3067 64.5389 82.408ZM102.036 82.408C102.036 93.9227 97.5476 99.68 88.5716 99.68C79.5956 99.68 75.1076 93.9227 75.1076 82.408C75.1076 71.0293 79.5956 65.34 88.5716 65.34C97.5476 65.34 102.036 71.0293 102.036 82.408ZM97.3436 82.408C97.3436 78.5547 97.0489 75.4267 96.4596 73.024C95.9156 70.576 95.0089 68.7853 93.7396 67.652C92.4703 66.4733 90.7476 65.884 88.5716 65.884C86.4863 65.884 84.8089 66.4733 83.5396 67.652C82.2703 68.7853 81.3183 70.576 80.6836 73.024C80.0943 75.4267 79.7996 78.5547 79.7996 82.408C79.7996 86.3067 80.0943 89.48 80.6836 91.928C81.3183 94.376 82.2703 96.1893 83.5396 97.368C84.8089 98.5467 86.4863 99.136 88.5716 99.136C90.7476 99.136 92.4703 98.5467 93.7396 97.368C95.0089 96.1893 95.9156 94.376 96.4596 91.928C97.0489 89.48 97.3436 86.3067 97.3436 82.408ZM120.696 98.456V99H106.96V98.456H111.72V66.564H106.96V66.02H115.732L115.936 74.112C117.251 70.9387 118.906 68.6947 120.9 67.38C122.94 66.02 125.026 65.34 127.156 65.34C130.103 65.34 132.211 66.02 133.48 67.38C134.795 68.6947 135.566 70.9613 135.792 74.18C137.107 70.9613 138.784 68.6947 140.824 67.38C142.864 66.02 144.95 65.34 147.08 65.34C149.302 65.34 151.047 65.7253 152.316 66.496C153.586 67.2213 154.47 68.4227 154.968 70.1C155.512 71.732 155.784 73.9533 155.784 76.764V98.456H160.544V99H146.876V98.456H151.568V75.132C151.568 72.0947 151.228 69.8507 150.548 68.4C149.868 66.904 148.418 66.156 146.196 66.156C144.338 66.156 142.456 66.8813 140.552 68.332C138.694 69.7373 137.13 72.0947 135.86 75.404V98.456H140.688V99H126.952V98.456H131.644V75.132C131.644 72.0947 131.304 69.8507 130.624 68.4C129.944 66.904 128.494 66.156 126.272 66.156C124.414 66.156 122.555 66.8587 120.696 68.264C118.838 69.6693 117.274 72.0493 116.004 75.404V98.456H120.696ZM175.16 99.136C177.608 99.136 179.489 98.5693 180.804 97.436C182.119 96.2573 182.776 94.6027 182.776 92.472C182.776 90.6587 182.051 89.0947 180.6 87.78C179.195 86.4653 177.268 85.2413 174.82 84.108C173.188 83.3373 171.669 82.5213 170.264 81.66C168.859 80.7987 167.725 79.756 166.864 78.532C166.048 77.308 165.64 75.7667 165.64 73.908C165.64 71.5507 166.547 69.5333 168.36 67.856C170.219 66.1787 172.984 65.34 176.656 65.34C179.92 65.34 182.3 65.9747 183.796 67.244C185.292 68.468 186.04 69.8507 186.04 71.392C186.04 72.3893 185.791 73.228 185.292 73.908C184.839 74.588 184.295 75.0867 183.66 75.404C183.071 75.7213 182.527 75.88 182.028 75.88L181.824 75.676C182.277 75.1773 182.595 74.6107 182.776 73.976C182.957 73.296 183.048 72.5933 183.048 71.868C183.048 70.9613 182.889 70.0547 182.572 69.148C182.255 68.2413 181.62 67.4707 180.668 66.836C179.761 66.2013 178.424 65.884 176.656 65.884C174.843 65.884 173.392 66.2013 172.304 66.836C171.216 67.4253 170.423 68.2187 169.924 69.216C169.471 70.168 169.244 71.2107 169.244 72.344C169.244 73.8853 169.584 75.1547 170.264 76.152C170.989 77.1493 171.941 78.0107 173.12 78.736C174.299 79.416 175.613 80.1187 177.064 80.844C179.875 82.1133 182.119 83.496 183.796 84.992C185.473 86.488 186.312 88.392 186.312 90.704C186.312 93.4693 185.292 95.668 183.252 97.3C181.212 98.8867 178.515 99.68 175.16 99.68C172.712 99.68 170.717 99.34 169.176 98.66C167.635 97.98 166.479 97.1187 165.708 96.076C164.983 95.0333 164.62 93.9227 164.62 92.744C164.62 91.4293 165.028 90.3867 165.844 89.616C166.705 88.8 167.635 88.392 168.632 88.392L168.836 88.596C168.473 89.14 168.224 89.752 168.088 90.432C167.952 91.0667 167.884 91.7013 167.884 92.336C167.884 94.0587 168.451 95.6227 169.584 97.028C170.717 98.4333 172.576 99.136 175.16 99.136Z" fill="white"/>
<path d="M2.368 7.776C2.368 8.16 2.45867 8.46933 2.64 8.704C2.832 8.93867 3.088 9.12533 3.408 9.264C3.728 9.392 4.08533 9.49867 4.48 9.584C4.87467 9.66933 5.28 9.75467 5.696 9.84C6.12267 9.91467 6.53333 10.016 6.928 10.144C7.32267 10.272 7.68 10.448 8 10.672C8.32 10.896 8.57067 11.1893 8.752 11.552C8.944 11.9147 9.04 12.3733 9.04 12.928C9.04 13.6213 8.864 14.2133 8.512 14.704C8.17067 15.1947 7.696 15.568 7.088 15.824C6.49067 16.0693 5.80267 16.192 5.024 16.192C4.24533 16.192 3.552 16.0747 2.944 15.84C2.34667 15.5947 1.84533 15.232 1.44 14.752C1.04533 14.2613 0.768 13.6533 0.608 12.928H2.144C2.32533 13.5787 2.656 14.0747 3.136 14.416C3.62667 14.7573 4.26133 14.928 5.04 14.928C5.86133 14.928 6.48 14.7627 6.896 14.432C7.32267 14.1013 7.536 13.664 7.536 13.12C7.536 12.704 7.44 12.368 7.248 12.112C7.06667 11.856 6.816 11.6587 6.496 11.52C6.176 11.3707 5.81867 11.2533 5.424 11.168C5.02933 11.072 4.61867 10.9813 4.192 10.896C3.776 10.8107 3.37067 10.7093 2.976 10.592C2.58133 10.464 2.224 10.2933 1.904 10.08C1.584 9.86667 1.328 9.584 1.136 9.232C0.954667 8.88 0.864 8.42667 0.864 7.872C0.864 7.34933 1.008 6.864 1.296 6.416C1.584 5.968 2 5.61067 2.544 5.344C3.09867 5.06667 3.776 4.928 4.576 4.928C5.28 4.928 5.92 5.04533 6.496 5.28C7.08267 5.51467 7.57333 5.87733 7.968 6.368C8.36267 6.848 8.624 7.47733 8.752 8.256H7.2C7.02933 7.53067 6.71467 7.008 6.256 6.688C5.808 6.35733 5.23733 6.192 4.544 6.192C3.86133 6.192 3.328 6.336 2.944 6.624C2.56 6.912 2.368 7.296 2.368 7.776ZM17.4166 10.944L16.6166 11.696C16.6166 10.6827 16.4033 9.89867 15.9766 9.344C15.5606 8.78933 14.9686 8.512 14.2006 8.512C13.4113 8.512 12.8086 8.79467 12.3926 9.36C11.9766 9.91467 11.7686 10.7147 11.7686 11.76C11.7686 12.784 11.9873 13.5787 12.4246 14.144C12.862 14.6987 13.4806 14.976 14.2806 14.976C14.878 14.976 15.3793 14.832 15.7846 14.544C16.2006 14.256 16.4833 13.8187 16.6326 13.232H18.1046C17.87 14.224 17.4113 14.9653 16.7286 15.456C16.0566 15.9467 15.2406 16.192 14.2806 16.192C13.4593 16.192 12.75 16.016 12.1526 15.664C11.566 15.312 11.1126 14.8053 10.7926 14.144C10.4833 13.472 10.3286 12.6773 10.3286 11.76C10.3286 10.8 10.4833 9.98933 10.7926 9.328C11.1126 8.66667 11.5606 8.16533 12.1366 7.824C12.7233 7.472 13.4113 7.296 14.2006 7.296C15.0006 7.296 15.6833 7.472 16.2486 7.824C16.8246 8.176 17.2673 8.67733 17.5766 9.328C17.886 9.968 18.0406 10.7413 18.0406 11.648V12H10.9206V10.944H17.4166ZM26.5729 10.944L25.7729 11.696C25.7729 10.6827 25.5595 9.89867 25.1329 9.344C24.7169 8.78933 24.1249 8.512 23.3569 8.512C22.5675 8.512 21.9649 8.79467 21.5489 9.36C21.1329 9.91467 20.9249 10.7147 20.9249 11.76C20.9249 12.784 21.1435 13.5787 21.5809 14.144C22.0182 14.6987 22.6369 14.976 23.4369 14.976C24.0342 14.976 24.5355 14.832 24.9409 14.544C25.3569 14.256 25.6395 13.8187 25.7889 13.232H27.2609C27.0262 14.224 26.5675 14.9653 25.8849 15.456C25.2129 15.9467 24.3969 16.192 23.4369 16.192C22.6155 16.192 21.9062 16.016 21.3089 15.664C20.7222 15.312 20.2689 14.8053 19.9489 14.144C19.6395 13.472 19.4849 12.6773 19.4849 11.76C19.4849 10.8 19.6395 9.98933 19.9489 9.328C20.2689 8.66667 20.7169 8.16533 21.2929 7.824C21.8795 7.472 22.5675 7.296 23.3569 7.296C24.1569 7.296 24.8395 7.472 25.4049 7.824C25.9809 8.176 26.4235 8.67733 26.7329 9.328C27.0422 9.968 27.1969 10.7413 27.1969 11.648V12H20.0769V10.944H26.5729ZM35.7323 16.192C34.9216 16.192 34.2229 16.016 33.6363 15.664C33.0603 15.312 32.6176 14.8053 32.3083 14.144C31.9989 13.472 31.8443 12.6773 31.8443 11.76C31.8443 10.8 31.9989 9.98933 32.3083 9.328C32.6283 8.66667 33.0816 8.16533 33.6683 7.824C34.2549 7.472 34.9429 7.296 35.7323 7.296C36.5429 7.296 37.2363 7.47733 37.8123 7.84C38.3989 8.192 38.8469 8.704 39.1562 9.376C39.4656 10.0373 39.6203 10.832 39.6203 11.76C39.6203 12.7093 39.4603 13.5147 39.1403 14.176C38.8309 14.8373 38.3829 15.3387 37.7963 15.68C37.2203 16.0213 36.5323 16.192 35.7323 16.192ZM35.7323 14.976C36.5216 14.976 37.1243 14.6987 37.5403 14.144C37.9669 13.5893 38.1803 12.7947 38.1803 11.76C38.1803 10.7253 37.9669 9.92533 37.5403 9.36C37.1243 8.79467 36.5216 8.512 35.7323 8.512C34.9429 8.512 34.3349 8.79467 33.9083 9.36C33.4923 9.91467 33.2843 10.7147 33.2843 11.76C33.2843 12.784 33.4976 13.5787 33.9243 14.144C34.3509 14.6987 34.9536 14.976 35.7323 14.976ZM48.2485 7.504V16H46.8405V7.504H48.2485ZM46.8405 12.528H47.5125C47.4698 13.3387 47.3045 14.016 47.0165 14.56C46.7285 15.104 46.3498 15.5147 45.8805 15.792C45.4112 16.0587 44.8725 16.192 44.2645 16.192C43.6778 16.192 43.1712 16.08 42.7445 15.856C42.3178 15.6213 41.9925 15.28 41.7685 14.832C41.5445 14.384 41.4325 13.8347 41.4325 13.184V7.504H42.8405V12.896C42.8405 13.3227 42.9045 13.696 43.0325 14.016C43.1605 14.3253 43.3578 14.5653 43.6245 14.736C43.8912 14.9067 44.2325 14.992 44.6485 14.992C44.9898 14.992 45.2938 14.9227 45.5605 14.784C45.8378 14.6453 46.0672 14.4587 46.2485 14.224C46.4405 13.9787 46.5845 13.712 46.6805 13.424C46.7872 13.1253 46.8405 12.8267 46.8405 12.528ZM50.495 16V7.504H51.903V16H50.495ZM51.903 11.248H51.263C51.327 10.3307 51.503 9.584 51.791 9.008C52.0897 8.42133 52.463 7.98933 52.911 7.712C53.3697 7.43467 53.871 7.296 54.415 7.296C54.5857 7.296 54.7403 7.31733 54.879 7.36C55.0283 7.392 55.1403 7.44 55.215 7.504V8.768C55.0977 8.72533 54.9643 8.69867 54.815 8.688C54.6657 8.66667 54.5057 8.656 54.335 8.656C53.9083 8.656 53.5403 8.72 53.231 8.848C52.9323 8.96533 52.6817 9.14133 52.479 9.376C52.287 9.61067 52.143 9.888 52.047 10.208C51.951 10.5173 51.903 10.864 51.903 11.248Z" fill="white"/>
<path d="M227.198 95.888L232.334 93.2729C240.627 89.0509 250.623 90.0739 257.888 95.888V95.888V95.888C251.947 88.8185 250.835 78.8712 255.068 70.664L257.888 65.1972" stroke="#678784" stroke-width="3"/>
<path d="M257.625 95.5859L224.365 62.3255" stroke="#678784" stroke-width="3"/>
</svg>
