<svg width="743" height="200" viewBox="0 0 743 200" fill="none" xmlns="http://www.w3.org/2000/svg">
<path d="M210.289 24.604L156.317 199.62H152.125L115.969 83.554L79.5506 199.62H75.3586L16.9326 11.766H0.426551V9.66999H54.9226V11.766H35.7966C36.1459 13.6873 36.4952 15.5213 36.8446 17.268C37.1939 19.0147 37.7179 20.936 38.4166 23.032L84.7906 173.682L114.659 78.838L93.6986 11.766H81.3846V9.66999H162.081V11.766H145.051L127.497 64.952L161.033 173.682L207.931 22.77C208.629 20.4993 208.979 18.4907 208.979 16.744C208.979 14.9973 208.193 13.7747 206.621 13.076C205.049 12.2027 202.603 11.766 199.285 11.766H187.233V9.66999H231.249V11.766C226.183 11.766 222.341 12.1153 219.721 12.814C217.275 13.338 215.354 14.5607 213.957 16.482C212.734 18.2287 211.511 20.936 210.289 24.604ZM114.921 23.294L126.187 60.498L142.169 11.766H112.563C112.737 13.6873 112.999 15.6087 113.349 17.53C113.698 19.2767 114.222 21.198 114.921 23.294ZM324.476 133.072C324.476 177.437 307.184 199.62 272.6 199.62C238.016 199.62 220.724 177.437 220.724 133.072C220.724 89.2307 238.016 67.31 272.6 67.31C307.184 67.31 324.476 89.2307 324.476 133.072ZM306.398 133.072C306.398 118.225 305.262 106.173 302.992 96.916C300.896 87.484 297.402 80.5847 292.512 76.218C287.621 71.6767 280.984 69.406 272.6 69.406C264.565 69.406 258.102 71.6767 253.212 76.218C248.321 80.5847 244.653 87.484 242.208 96.916C239.937 106.173 238.802 118.225 238.802 133.072C238.802 148.093 239.937 160.32 242.208 169.752C244.653 179.184 248.321 186.171 253.212 190.712C258.102 195.253 264.565 197.524 272.6 197.524C280.984 197.524 287.621 195.253 292.512 190.712C297.402 186.171 300.896 179.184 302.992 169.752C305.262 160.32 306.398 148.093 306.398 133.072ZM450.87 133.072C450.87 177.437 433.578 199.62 398.994 199.62C364.41 199.62 347.118 177.437 347.118 133.072C347.118 89.2307 364.41 67.31 398.994 67.31C433.578 67.31 450.87 89.2307 450.87 133.072ZM432.792 133.072C432.792 118.225 431.657 106.173 429.386 96.916C427.29 87.484 423.797 80.5847 418.906 76.218C414.015 71.6767 407.378 69.406 398.994 69.406C390.959 69.406 384.497 71.6767 379.606 76.218C374.715 80.5847 371.047 87.484 368.602 96.916C366.331 106.173 365.196 118.225 365.196 133.072C365.196 148.093 366.331 160.32 368.602 169.752C371.047 179.184 374.715 186.171 379.606 190.712C384.497 195.253 390.959 197.524 398.994 197.524C407.378 197.524 414.015 195.253 418.906 190.712C423.797 186.171 427.29 179.184 429.386 169.752C431.657 160.32 432.792 148.093 432.792 133.072ZM538.751 2.59599V0.499984H573.597V185.472C573.597 188.092 574.033 190.363 574.907 192.284C575.78 194.031 577.876 194.904 581.195 194.904H592.199V197H574.121C567.658 197 563.291 195.079 561.021 191.236C558.75 187.393 557.527 181.542 557.353 173.682C553.51 181.891 548.357 188.267 541.895 192.808C535.607 197.349 527.834 199.62 518.577 199.62C503.73 199.62 492.639 194.904 485.303 185.472C477.967 175.865 474.299 160.495 474.299 139.36C474.299 113.859 478.927 95.5187 488.185 84.34C497.617 72.9867 510.105 67.31 525.651 67.31C533.336 67.31 539.711 69.144 544.777 72.812C549.842 76.3053 553.947 81.0213 557.091 86.96V2.59599H538.751ZM492.115 139.36C492.115 152.635 493.163 163.551 495.259 172.11C497.529 180.494 500.848 186.695 505.215 190.712C509.581 194.729 514.996 196.738 521.459 196.738C529.493 196.738 536.393 194.467 542.157 189.926C547.921 185.385 552.899 178.485 557.091 169.228V91.152C553.947 84.34 549.929 79.1 545.039 75.432C540.323 71.764 534.384 69.93 527.223 69.93C519.363 69.93 512.813 72.4627 507.573 77.528C502.333 82.5933 498.403 90.2787 495.783 100.584C493.337 110.715 492.115 123.64 492.115 139.36ZM648.181 197.524C657.613 197.524 664.861 195.341 669.927 190.974C674.992 186.433 677.525 180.057 677.525 171.848C677.525 164.861 674.73 158.835 669.141 153.77C663.726 148.705 656.303 143.989 646.871 139.622C640.583 136.653 634.731 133.509 629.317 130.19C623.902 126.871 619.535 122.854 616.217 118.138C613.073 113.422 611.501 107.483 611.501 100.322C611.501 91.2393 614.994 83.4667 621.981 77.004C629.142 70.5413 639.797 67.31 653.945 67.31C666.521 67.31 675.691 69.7553 681.455 74.646C687.219 79.362 690.101 84.6893 690.101 90.628C690.101 94.4707 689.14 97.702 687.219 100.322C685.472 102.942 683.376 104.863 680.931 106.086C678.66 107.309 676.564 107.92 674.643 107.92L673.857 107.134C675.603 105.213 676.826 103.029 677.525 100.584C678.223 97.964 678.573 95.2567 678.573 92.462C678.573 88.9687 677.961 85.4753 676.739 81.982C675.516 78.4887 673.071 75.5193 669.403 73.074C665.909 70.6287 660.757 69.406 653.945 69.406C646.958 69.406 641.369 70.6287 637.177 73.074C632.985 75.3447 629.928 78.4013 628.007 82.244C626.26 85.912 625.387 89.9293 625.387 94.296C625.387 100.235 626.697 105.125 629.317 108.968C632.111 112.811 635.779 116.129 640.321 118.924C644.862 121.544 649.927 124.251 655.517 127.046C666.346 131.937 674.992 137.264 681.455 143.028C687.917 148.792 691.149 156.128 691.149 165.036C691.149 175.691 687.219 184.162 679.359 190.45C671.499 196.563 661.106 199.62 648.181 199.62C638.749 199.62 631.063 198.31 625.125 195.69C619.186 193.07 614.732 189.751 611.763 185.734C608.968 181.717 607.571 177.437 607.571 172.896C607.571 167.831 609.143 163.813 612.287 160.844C615.605 157.7 619.186 156.128 623.029 156.128L623.815 156.914C622.417 159.01 621.457 161.368 620.933 163.988C620.409 166.433 620.147 168.879 620.147 171.324C620.147 177.961 622.33 183.987 626.697 189.402C631.063 194.817 638.225 197.524 648.181 197.524ZM730.539 154.556V143.028C730.539 137.264 730.277 130.103 729.753 121.544C729.229 112.811 728.53 103.379 727.657 93.248C726.783 83.1173 725.91 72.8993 725.037 62.594C724.163 52.114 723.465 42.2453 722.941 32.988C722.417 23.7307 722.155 15.958 722.155 9.66999H741.019C741.019 15.958 740.669 23.7307 739.971 32.988C739.447 42.0707 738.748 51.852 737.875 62.332C737.176 72.6373 736.39 82.9427 735.517 93.248C734.643 103.379 733.945 112.811 733.421 121.544C732.897 130.103 732.635 137.264 732.635 143.028V154.556H730.539ZM731.587 199.62C728.617 199.62 725.997 198.485 723.727 196.214C721.631 193.943 720.583 191.411 720.583 188.616C720.583 185.472 721.631 182.939 723.727 181.018C725.997 178.922 728.617 177.874 731.587 177.874C734.731 177.874 737.351 178.922 739.447 181.018C741.543 182.939 742.591 185.472 742.591 188.616C742.591 191.411 741.543 193.943 739.447 196.214C737.351 198.485 734.731 199.62 731.587 199.62Z" fill="white"/>
</svg>
